<?xml version="1.0"?>
<svg width="111.73684210526318" height="91.21804511278197" xmlns="http://www.w3.org/2000/svg" xmlns:svg="http://www.w3.org/2000/svg" preserveAspectRatio="xMidYMid meet" version="1.1">
 <defs>
  <path d="m453.3,331.28l0,28.57l-64.66,58.65l0,-30.08l64.66,-57.14z" id="aFZf6T5ED"/>
  <path d="m410.23,331.28l0,28.57l-64.67,58.65l0,-30.08l64.67,-57.14z" id="a9fehgwfM"/>
 </defs>
 <g class="layer">
  <title>Layer 1</title>
  <rect fill="none" height="0" id="svg_6" stroke="#000000" width="0" x="-585.13" y="86.11"/>
  <path d="m46.66,84.26c-4.02,-3.09 -8.63,-1.17 -13.06,-1.4c-3.88,-3.27 -8.6,0.69 -12.25,-2.46c-4.73,-4.15 3.47,-6.75 1.72,-11.68c-0.2,-7.1 -3.28,-13.53 -6.53,-19.49c-2.3,-4.74 -1.48,-10.19 -2.22,-15.27c-2.66,-3.64 -5.31,-8.15 -2.15,-12.66c3.57,-3.8 1.89,-8.79 0.49,-13.18c3.61,1.04 7.75,5.8 12.5,4.85c3.23,-2.05 5.19,-0.02 5.73,3.72c1.69,4.81 2.68,11.39 8.02,12.94c5.61,1.58 11.89,1.93 16.33,6.55c8.11,7.48 11.88,19.28 11.56,30.65c0.73,5.32 7.51,2.5 10.87,3.28c5.62,-0.25 11.02,1.49 16.47,2.69c4.86,1.27 8.97,-2.75 13.54,-3.23c0.77,4.65 -5.22,6.59 -8.5,8.02c-3.89,1.63 -8.09,1.67 -12.08,0.47c-8.63,-2.12 -17.78,-1.56 -25.98,2.16c-4.43,1.6 -8.72,4.64 -13.54,4.26l-0.91,-0.23l0,0z" fill="none" id="svg_9" stroke="#000000"/>
 </g>
</svg>